<?xml version="1.0" encoding="UTF-8" standalone="no"?>
<!-- Created with Inkscape (http://www.inkscape.org/) -->

<svg
   width="153.02618mm"
   height="75.190826mm"
   viewBox="0 0 153.02618 75.190826"
   version="1.1"
   id="svg5"
   inkscape:version="1.2.2 (732a01da63, 2022-12-09, custom)"
   sodipodi:docname="betti-numbers.svg"
   xmlns:inkscape="http://www.inkscape.org/namespaces/inkscape"
   xmlns:sodipodi="http://sodipodi.sourceforge.net/DTD/sodipodi-0.dtd"
   xmlns="http://www.w3.org/2000/svg"
   xmlns:svg="http://www.w3.org/2000/svg">
  <sodipodi:namedview
     id="namedview7"
     pagecolor="#ffffff"
     bordercolor="#666666"
     borderopacity="1.0"
     inkscape:showpageshadow="2"
     inkscape:pageopacity="0.0"
     inkscape:pagecheckerboard="0"
     inkscape:deskcolor="#d1d1d1"
     inkscape:document-units="mm"
     showgrid="false"
     inkscape:zoom="1.6819304"
     inkscape:cx="352.86834"
     inkscape:cy="188.77119"
     inkscape:window-width="1920"
     inkscape:window-height="1136"
     inkscape:window-x="0"
     inkscape:window-y="27"
     inkscape:window-maximized="1"
     inkscape:current-layer="layer1" />
     <defs><style>:root{--main:#000;}</style></defs>
  <g
     inkscape:label="Layer 1"
     inkscape:groupmode="layer"
     id="layer1"
     transform="translate(-11.899161,-3.5885985)">
    <path
       style="fill:none;stroke:var(--main);stroke-width:0.264583px;stroke-linecap:butt;stroke-linejoin:miter;stroke-opacity:1"
       d="m 12.530138,16.881874 c -0.154847,0.411764 -0.37517,0.804549 -0.46454,1.235292 -0.06797,0.327583 -0.01289,0.669367 0,1.003677 0.04783,1.240168 0.309391,2.273975 0.851659,3.397057 0.333365,0.690427 0.659257,1.079593 1.083931,1.698526 0.589353,0.858941 0.306223,0.580069 1.083926,1.312502 0.70066,0.659876 1.38204,1.190911 2.245287,1.621319 0.175819,0.08767 0.351338,0.184097 0.541965,0.231622 0.613887,0.15304 1.07627,0.05678 1.703317,-0.07721 0.391727,-0.08371 0.78838,-0.16271 1.161351,-0.308824 0.864242,-0.338571 1.275968,-0.754938 2.013016,-1.312502 0.937609,-0.709287 1.505789,-1.098321 2.400124,-1.85294 1.332412,-1.124258 0.388111,-0.414722 1.703326,-1.621321 1.021754,-0.937373 1.235831,-1.001161 2.322703,-1.930146 0.802142,-0.685616 1.0386,-1.046316 1.935585,-1.621325 0.83757,-0.536922 1.327751,-0.698687 2.245286,-1.003673 0.333026,-0.110696 0.660019,-0.253096 1.006507,-0.308824 0.580376,-0.09335 2.206868,-0.112534 2.787247,0 0.874694,0.169601 2.361851,0.885441 3.09694,1.235292 0.572863,0.272642 1.133044,0.571246 1.703316,0.849263 0.591127,0.288182 1.187162,0.566179 1.780744,0.849267 1.337511,0.637881 2.073987,1.127084 3.561485,1.312497 0.640244,0.07981 1.297858,0.09784 1.935594,0 1.186775,-0.182066 2.88871,-0.904725 3.948596,-1.466911 1.02243,-0.542319 2.590189,-1.584806 3.48406,-2.316174 0.465682,-0.381023 0.878184,-0.822768 1.316207,-1.235292 2.171456,-2.045054 1.195858,-1.115299 3.871169,-3.783091"
       id="path253" />
    <path
       style="fill:none;stroke:var(--main);stroke-width:0.264583px;stroke-linecap:butt;stroke-linejoin:miter;stroke-opacity:1"
       d="m 75.828498,32.212083 c 0.07053,0.250849 -0.02821,0.511098 0,0.764296 0.0258,0.231545 0.08931,0.376368 0.164238,0.60052 0.0365,0.109186 0.06114,0.223081 0.109495,0.327559 0.08432,0.182187 0.360354,0.6213 0.49272,0.764297 0.30213,0.326385 0.46227,0.385506 0.875946,0.545925 0.603623,0.234085 0.949084,0.280633 1.587658,0.109191 0.278591,-0.0748 0.561285,-0.147844 0.821195,-0.272965 0.617514,-0.297275 0.989836,-0.676886 1.478161,-1.146448 0.911334,-0.876313 1.783229,-1.80712 2.518352,-2.838828 0.252103,-0.353817 0.478576,-0.72526 0.711706,-1.091856 0.720658,-1.133229 0.730937,-1.158557 1.368671,-2.347486 0.204041,-0.380395 0.427336,-0.751793 0.60221,-1.146447 0.172635,-0.389602 0.302882,-0.79689 0.43798,-1.201046 0.324067,-0.96947 0.538917,-1.942906 0.711706,-2.948005 0.05627,-0.3273 0.126423,-0.652731 0.164237,-0.982671 0.03529,-0.307883 0.03751,-0.618662 0.05475,-0.928079 0.01926,-0.3457 0.0365,-0.691509 0.05475,-1.037263 0.01826,-0.345754 0.05474,-0.691028 0.05474,-1.037263 0,-0.162056 -0.08593,-1.141648 -0.10949,-1.364816 -0.01032,-0.0978 -0.06129,-0.565509 -0.109495,-0.70971 -0.05665,-0.169473 -0.201105,-0.376205 -0.383226,-0.436743 -0.08779,-0.02918 -0.398592,0.03888 -0.43797,0.05459 -0.07033,0.02805 -0.576222,0.356229 -0.602218,0.382151 -0.093,0.09274 -0.153686,0.213604 -0.218985,0.327559 -0.336955,0.588015 -0.493707,1.259574 -0.65696,1.910743 -0.178266,0.711054 -0.166598,0.698286 -0.273733,1.419414 -0.03782,0.254575 -0.0897,0.507697 -0.109498,0.764303 -0.0168,0.217724 0,0.436741 0,0.655112 0,0.57696 8.8e-5,1.092069 0.218988,1.637782 0.329991,0.822662 0.966311,1.51931 1.642406,2.074526 0.160626,0.13191 0.317223,0.270786 0.492721,0.382151 0.227356,0.144275 0.472662,0.258191 0.711705,0.382145 0.374917,0.194408 0.733798,0.399178 1.149678,0.491335 0.161332,0.03575 0.328292,0.0382 0.49272,0.05459 0.200568,0.02 0.400656,0.0546 0.602219,0.0546 0.383436,0 0.900123,-0.06493 1.259163,-0.218375 0.19555,-0.08357 0.37309,-0.205832 0.54747,-0.327552 0.19142,-0.133618 0.38624,-0.267924 0.54747,-0.436744 0.34236,-0.358463 0.96928,-1.335965 1.20443,-1.692381 0.23924,-0.362633 0.4957,-0.714914 0.7117,-1.091855 0.42427,-0.740379 0.81959,-1.650107 1.09494,-2.456671 0.14701,-0.430638 0.25213,-0.874481 0.38323,-1.31023 0.54261,-1.803641 0.36415,-1.015303 0.76645,-2.838821 0.19161,-0.86852 0.34983,-1.577726 0.43797,-2.456678 0.0346,-0.344507 0.0349,-0.691594 0.0547,-1.037263 0.0167,-0.291255 0.0547,-0.581753 0.0547,-0.873486 0,-0.04766 -0.0927,-1.204036 -0.1095,-1.310225 -0.0443,-0.279918 -0.16424,-0.5333606 -0.16424,-0.8188937"
       id="path257" />
    <path
       style="fill:none;stroke:var(--main);stroke-width:0.264583px;stroke-linecap:butt;stroke-linejoin:miter;stroke-opacity:1"
       d="m 119.14771,15.74901 c -0.16424,0.161438 -0.34785,0.305286 -0.49272,0.484312 -0.21857,0.270112 -0.22549,0.669967 -0.27373,0.982671 -0.0392,0.254357 -0.0742,0.509357 -0.10949,0.764296 -0.0377,0.272797 -0.0829,0.544788 -0.1095,0.818894 -0.0707,0.728341 -0.0547,0.930552 -0.0547,1.637783 0,0.815051 -0.0338,0.75461 0.1095,1.58319 0.13849,0.800983 0.14711,0.683654 0.38322,1.419415 2e-5,7.1e-5 0.43795,1.419349 0.43798,1.419413 0.088,0.210524 0.20388,0.409379 0.32848,0.600519 0.27062,0.415182 0.47378,0.581634 0.8212,0.928074 0.12774,0.127384 0.24609,0.264938 0.38322,0.382151 0.11922,0.101902 0.25879,0.177512 0.38323,0.272968 0.25562,0.196072 0.42569,0.38549 0.71171,0.545925 0.57822,0.324337 1.26645,0.459547 1.91613,0.545928 0.14584,0.01939 0.29086,0.05459 0.43798,0.05459 0.18339,0 0.36489,-0.03725 0.54746,-0.05459 0.20066,-0.01905 0.4042,-0.01699 0.60222,-0.05459 0.18714,-0.03554 0.36578,-0.106569 0.54747,-0.163783 0.24877,-0.07834 0.63518,-0.199506 0.87594,-0.327554 0.36441,-0.193802 0.70812,-0.475154 1.04019,-0.70971 0.67844,-0.479208 0.78445,-0.482796 1.36867,-1.091853 0.22871,-0.238432 0.97168,-1.190141 1.14968,-1.419408 0.23908,-0.307938 0.47447,-0.61872 0.7117,-0.928079 0.23724,-0.309361 0.49504,-0.603983 0.71172,-0.928079 0.2222,-0.332367 0.41277,-0.685197 0.60221,-1.037262 0.65711,-1.221147 1.16323,-2.512859 1.75189,-3.766901 0.29339,-0.625019 0.82547,-1.684669 1.09494,-2.347494 0.0654,-0.160892 0.53938,-1.527646 0.60222,-1.746966 0.0669,-0.233427 0.10741,-0.473626 0.16423,-0.709704 0.0527,-0.218881 0.11421,-0.435616 0.16424,-0.655118 0.11156,-0.489441 0.11589,-0.555079 0.16425,-1.037257 0.0838,-0.835926 0.14599,-1.6743444 0.21898,-2.5112694 0.0333,-0.382436 0.0893,-0.763092 0.10949,-1.146447 0.0227,-0.429977 -0.0391,-0.834276 -0.10949,-1.255638 -0.0436,-0.26097 -0.10004,-0.508269 -0.16424,-0.764296 -0.0182,-0.07279 -0.0283,-0.148133 -0.0547,-0.218375 -0.11605,-0.308594 -0.40419,-0.77262 -0.65697,-0.982671 -0.0506,-0.04202 -0.11368,-0.06717 -0.16424,-0.109184 -0.0595,-0.04941 -0.10126,-0.118923 -0.16423,-0.163776 -0.0536,-0.0382 -0.59996,-0.313347 -0.65697,-0.327559 -0.0708,-0.01766 -0.14599,0 -0.21898,0 h -0.16424 c -0.0548,0 -0.11229,-0.01727 -0.16425,0 -0.0624,0.02074 -0.10948,0.07279 -0.16423,0.109184 -0.10949,0.07279 -0.22854,0.132945 -0.32849,0.218375 -0.0784,0.06698 -0.14598,0.145579 -0.21898,0.218368 -0.0912,0.07279 -0.18249,0.145583 -0.27374,0.218375 -0.38015,0.303265 -0.74096,0.592473 -1.04019,0.982671 -0.45009,0.586929 -0.77766,1.278153 -1.04019,1.965335 -0.14386,0.376575 -0.34199,0.92741 -0.43797,1.31023 -0.0495,0.197365 -0.0643,0.402133 -0.10949,0.60052 -0.0461,0.202335 -0.12004,0.397758 -0.16424,0.600519 -0.0426,0.1956674 -0.19066,1.1882924 -0.21899,1.3648234 -0.15729,0.980267 -0.0667,0.340008 -0.21898,1.364815 0,3.8e-5 -0.21898,1.528557 -0.21899,1.528598 -0.0459,0.256504 -0.113,0.508807 -0.16425,0.764303 -0.11651,0.580957 -0.23386,1.162042 -0.32847,1.746967 -4e-5,2.45e-4 -0.21896,1.63753 -0.21898,1.637782 -0.029,0.308537 -0.0257,0.619542 -0.0548,0.928079 -0.0258,0.274185 -0.0829,0.544788 -0.1095,0.818895 l -0.10949,1.746967 c -0.0171,0.545658 0,1.091854 0,1.637782 0,0.272965 -0.009,0.546092 0,0.818896 0.008,0.217635 0.0874,1.16628 0.10949,1.419407 0.0365,0.418544 0.055,0.839052 0.1095,1.255636 0.0264,0.201755 0.073,0.400349 0.10948,0.600519 0.094,0.515483 0.20112,1.020546 0.32849,1.528599 0.10909,0.435102 0.20159,0.880022 0.32848,1.310224 0.15124,0.512776 0.34548,1.014738 0.49272,1.528599 0.1239,0.432411 0.21227,0.875665 0.32848,1.31023 0.0284,0.106275 0.16547,0.592309 0.21899,0.709705 0.044,0.09662 0.11665,0.178041 0.16424,0.272965 0.0439,0.08763 0.0618,0.187322 0.10949,0.27296 0.0443,0.07957 0.11191,0.143822 0.16424,0.218369 0.30082,0.428516 0.59429,0.868878 0.87594,1.31023 0.21848,0.342357 0.39088,0.727715 0.65697,1.037264 0.19933,0.231894 0.44035,0.4391 0.65697,0.655111 0.073,0.07279 0.14598,0.145584 0.21898,0.218374 0.073,0.07279 0.14599,0.145579 0.21899,0.218369 0.073,0.07279 0.13752,0.155191 0.21898,0.218368 0.084,0.06517 0.18858,0.1001 0.27374,0.163782 2e-4,1.57e-4 0.32827,0.327385 0.32847,0.327555 0.26436,0.219686 0.50696,0.277696 0.82121,0.382151 5e-5,1.3e-5 0.32844,0.109177 0.32848,0.109182 0.054,0.009 0.10949,0 0.16424,0 0.23689,0 0.27562,-0.04733 0.49272,-0.109182 0.1939,-0.05524 0.42002,-0.07294 0.60221,-0.163778 0.38763,-0.193272 -0.0591,-0.02508 0.32849,-0.218373 0.0516,-0.02574 0.11472,-0.02498 0.16423,-0.05459 0.12686,-0.07591 0.34696,-0.464394 0.43797,-0.600519 0.073,-0.109189 0.16012,-0.210148 0.21899,-0.327555 0.0516,-0.102912 0.073,-0.218371 0.1095,-0.327559 0.0529,-0.1583 0.13144,-0.327824 0.16423,-0.491334 0.0263,-0.131276 0,-0.451432 0,-0.600519 0,-0.109189 0.018,-0.219866 0,-0.32756 -2e-5,-1.08e-4 -0.10945,-0.327453 -0.10948,-0.327554 -0.0721,-0.215593 -0.12928,-0.446368 -0.21899,-0.655116 -0.0643,-0.149622 -0.14599,-0.291164 -0.21898,-0.436745 -0.17457,-0.348168 -0.3309,-0.713304 -0.54747,-1.037262 -0.18249,-0.272968 -0.36498,-0.545928 -0.54747,-0.818888 -0.10584,-0.158311 -0.24322,-0.321255 -0.32849,-0.491337 -0.0258,-0.05145 -0.0251,-0.114453 -0.0547,-0.163774 -0.0266,-0.04417 -0.0829,-0.06503 -0.10949,-0.109191 -0.0594,-0.09864 -0.0579,-0.224642 -0.1095,-0.327554 -0.0853,-0.170077 -0.22264,-0.333021 -0.32848,-0.491334 -0.073,-0.109188 -0.12598,-0.234821 -0.21899,-0.32756 -0.0465,-0.04642 -0.10949,-0.07279 -0.16424,-0.109185 -0.16424,-0.109186 -0.32848,-0.218371 -0.49272,-0.32756 -0.21597,-0.143578 -0.45433,-0.275082 -0.65695,-0.436734 -0.33502,-0.334084 0.0922,0.06896 -0.219,-0.163785 -0.0413,-0.03087 -0.0682,-0.07831 -0.10949,-0.109183 -0.0327,-0.02442 -0.0768,-0.03017 -0.10949,-0.05459 -0.16346,-0.122258 -0.27831,-0.309377 -0.43797,-0.436745 -0.10278,-0.08199 -0.21899,-0.145576 -0.32849,-0.218368 -0.21899,-0.145582 -0.43798,-0.291161 -0.65696,-0.436743 -0.1095,-0.07279 -0.22736,-0.134344 -0.32848,-0.218374 -0.0595,-0.04941 -0.10127,-0.118922 -0.16424,-0.163777 -0.0664,-0.04732 -0.14812,-0.0688 -0.21898,-0.109183 -0.16299,-0.09287 -0.3461,-0.210595 -0.49272,-0.327559 -0.0806,-0.06429 -0.13841,-0.154083 -0.219,-0.218369 -0.10278,-0.08199 -0.22735,-0.134344 -0.32847,-0.218376 -0.0595,-0.04941 -0.10478,-0.114361 -0.16425,-0.163774 -0.0506,-0.04202 -0.11367,-0.06717 -0.16423,-0.109186 -0.11893,-0.09883 -0.20466,-0.234947 -0.32849,-0.32756 -4e-5,-3.1e-5 -0.54742,-0.32753 -0.54747,-0.327551 -0.0879,-0.04383 -0.18779,-0.06159 -0.27372,-0.109191 -0.0797,-0.04418 -0.14164,-0.115565 -0.219,-0.163777 -0.0692,-0.04314 -0.14811,-0.0688 -0.21898,-0.109183 -0.14157,-0.08067 -0.36869,-0.224494 -0.49272,-0.327559 -0.0595,-0.04941 -0.10478,-0.114364 -0.16424,-0.163778 -0.0506,-0.04201 -0.11367,-0.06717 -0.16423,-0.109182 -0.23692,-0.196882 -0.42276,-0.454933 -0.65697,-0.655114 -0.13858,-0.118446 -0.28615,-0.226632 -0.43797,-0.327557 -0.0885,-0.05887 -0.18655,-0.102915 -0.27374,-0.163777 -0.19142,-0.13362 -0.37277,-0.281895 -0.54747,-0.436745 -0.20087,-0.178051 -0.45941,-0.427278 -0.6022,-0.655111 -0.0865,-0.137993 -0.13973,-0.294476 -0.219,-0.436742 -0.10336,-0.185526 -0.21898,-0.363953 -0.32847,-0.545928 -0.17129,-0.284679 -0.3249,-0.569212 -0.54747,-0.818894 -0.0686,-0.07695 -0.151,-0.140882 -0.21899,-0.218368 -0.0601,-0.06846 -0.10416,-0.149916 -0.16423,-0.218377 -0.13599,-0.154972 -0.29199,-0.291161 -0.43798,-0.436742 -0.16129,-0.160838 -0.34673,-0.316627 -0.49272,-0.491329 -0.20229,-0.242065 -0.30515,-0.539281 -0.43797,-0.818895 -0.4903,-1.032162 -0.26507,-0.373694 -0.71171,-1.746967 -0.0748,-0.230003 -0.0793,-1.221036 -0.38323,-1.419414 -0.26432,-0.172539 -1.48269,-1.056652 -2.18995,-0.375133"
       id="path271"
       sodipodi:nodetypes="csccsscscsssssssssssssssscssssscccsccssssssssscssssscsscssccccscsscssssccssssssssscscsssscsssssscssssscssscsscsscsssssssssssscsssscsscsssssssssssssc" />
    <path
       style="fill:none;stroke:var(--main);stroke-width:0.264583px;stroke-linecap:butt;stroke-linejoin:miter;stroke-opacity:1"
       d="m 147.06911,19.338254 c 0.19272,-0.04642 0.40458,-0.191919 0.60221,-0.245668 0.0536,-0.01456 0.11016,-0.01485 0.16424,-0.0273 0.26108,-0.06008 0.14125,-0.06246 0.43797,-0.109184 0.0906,-0.01426 0.18254,-0.01772 0.27374,-0.0273 0.0822,-0.0086 0.16389,-0.02216 0.24636,-0.0273 0.0637,-0.004 0.12788,0.0042 0.19161,0 0.0734,-0.0049 0.14557,-0.02272 0.21899,-0.0273 0.17303,-0.01078 0.34673,0 0.52009,0 0.0165,0 0.55831,0 0.57485,0 0.12774,0 0.25572,-0.0079 0.38322,0 0.1812,0.01129 0.40059,0.05167 0.57484,0.08189 0.0858,0.01488 0.44731,0.07764 0.54747,0.109184 0.0937,0.02951 0.18222,0.07348 0.27374,0.109188 0.11834,0.04618 0.2397,0.08501 0.35584,0.13648 0.12531,0.05553 0.54614,0.272167 0.68434,0.354855 0.0846,0.05063 0.16292,0.111225 0.24636,0.163776 0.09,0.05666 0.18654,0.102919 0.27373,0.16378 0.0388,0.02709 0.55639,0.44652 0.57484,0.464038 0.0982,0.09327 0.18299,0.199718 0.27374,0.30026 0.0735,0.08144 0.15304,0.157999 0.21898,0.245668 0.14394,0.191376 0.27106,0.447371 0.38323,0.655111 0.097,0.179703 0.30339,0.553273 0.38323,0.737005 0.062,0.142648 0.11355,0.2897 0.16424,0.436743 0.1057,0.306623 0.18196,0.550394 0.21898,0.873484 0.0449,0.392142 0.0286,0.62084 0,1.009965 -0.0474,0.646036 -0.10453,1.0883 -0.19161,1.774267 -0.0428,0.337029 -0.0869,0.67392 -0.13686,1.009965 -0.0231,0.155376 -0.0416,0.312287 -0.0821,0.464039 -0.0966,0.361389 -0.31945,0.687298 -0.57484,0.955374 -0.0846,0.08877 -0.18169,0.164679 -0.27373,0.245668 -0.13616,0.119803 -0.37205,0.34385 -0.54746,0.409443 -0.0705,0.02635 -0.146,0.0364 -0.21899,0.0546 -0.0365,0.0091 -0.0723,0.02199 -0.1095,0.0273 -0.0824,0.01175 -0.17182,-0.02275 -0.24636,-0.0546 -0.05,-0.02135 -0.21411,-0.1079 -0.24636,-0.13648 -0.0436,-0.03869 -0.0744,-0.08987 -0.10949,-0.136483 -0.0471,-0.06261 -0.0987,-0.122634 -0.13687,-0.191074 -0.12537,-0.225039 -0.17514,-0.406575 -0.24636,-0.655114 -0.0389,-0.135813 -0.0841,-0.270457 -0.1095,-0.409445 -0.0296,-0.162118 -0.037,-0.327501 -0.0547,-0.491334 -0.0748,-0.690044 -0.0548,-0.365244 -0.0548,-1.091856 0,-0.306583 -0.009,-0.895387 0.0274,-1.201042 0.0451,-0.377597 0.14217,-0.684059 0.27373,-1.037264 0.0584,-0.156821 0.11844,-0.313537 0.19162,-0.46404 0.0731,-0.150317 0.16544,-0.290486 0.24636,-0.436739 0.21613,-0.390645 0.1539,-0.321043 0.4106,-0.682411 0.0791,-0.111379 0.15178,-0.22896 0.24635,-0.327554 0.14258,-0.148641 0.51152,-0.418555 0.68434,-0.545928 0.0998,-0.07356 0.19393,-0.15603 0.30111,-0.218372 0.11287,-0.06566 0.23515,-0.113974 0.35585,-0.163779 0.37669,-0.155435 0.44632,-0.167828 0.82121,-0.272966 0.57722,-0.161885 0.44857,-0.1285 1.06755,-0.272962 0.50891,-0.118774 1.00712,-0.219337 1.50554,-0.382149 0.76902,-0.251211 1.63084,-0.634362 2.29936,-1.091858 0.42439,-0.290432 0.88263,-0.715889 1.25918,-1.064559 0.18444,-0.170788 0.37198,-0.338646 0.54746,-0.518631 0.0815,-0.08358 0.66817,-0.759791 0.76645,-0.873484 0.21131,-0.244427 0.41724,-0.493484 0.62959,-0.737003 0.045,-0.05162 0.37588,-0.412522 0.43798,-0.491335 0.0406,-0.05158 0.0718,-0.110028 0.10949,-0.163777 0.11007,-0.156794 0.0547,-0.05447 0.10949,-0.163779"
       id="path398" />
    <path
       style="fill:none;stroke:var(--main);stroke-width:0.264583px;stroke-linecap:butt;stroke-linejoin:miter;stroke-opacity:1"
       d="m 33.611034,31.177084 c -0.295878,-0.177028 -0.198437,-0.08869 -0.32848,-0.218371 -0.01826,-0.0182 -0.0432,-0.03156 -0.05475,-0.05459 -0.0041,-0.0081 0.0064,-0.03372 0,-0.0273 -0.01442,0.01437 -0.02511,0.03436 -0.02737,0.05459 -0.0071,0.0633 0,0.127383 0,0.191076 0,0.100087 0,0.200174 0,0.30026 0,0.309359 0,0.618718 0,0.928076 0,0.127384 -0.0044,0.254844 0,0.382151 0.03587,1.037323 0.02737,-0.193698 0.02737,0.791594 0,0.191077 -0.0096,0.382389 0,0.573225 0.0096,0.191704 0.03559,0.382238 0.05475,0.573223 0.02784,0.277571 0.03822,0.584046 0.246361,0.791596"
       id="path400" />
    <path
       style="fill:none;stroke:var(--main);stroke-width:0.264583px;stroke-linecap:butt;stroke-linejoin:miter;stroke-opacity:1"
       d="m 83.109871,38.282362 c -0.05474,0.145582 -0.1386,0.283337 -0.164241,0.436746 -0.01238,0.07401 0.03752,0.145332 0.05475,0.218371 0.01926,0.08165 0.03825,0.163406 0.05474,0.245668 0.02,0.09975 0.03214,0.201065 0.05475,0.30026 0.07653,0.335767 0.08197,0.235704 0.136868,0.545925 0.01789,0.101092 0.04605,0.40467 0.05474,0.491337 0.01916,0.190986 0.0346,0.382341 0.05475,0.573222 0.0077,0.07296 0.02249,0.145177 0.02737,0.218374 0.0043,0.06355 0,0.127384 0,0.191074 0,0.181975 0,0.363953 0,0.545928"
       id="path404" />
    <path
       style="fill:none;stroke:var(--main);stroke-width:0.264583px;stroke-linecap:butt;stroke-linejoin:miter;stroke-opacity:1"
       d="m 86.422049,41.148485 c 0.242192,0.266025 0.415306,0.457224 0.437975,0.818891 0.0051,0.08173 0.01061,0.16447 0,0.245668 -0.04459,0.340868 -0.17984,0.654947 -0.273735,0.982671"
       id="path406" />
    <path
       style="fill:none;stroke:var(--main);stroke-width:0.264583px;stroke-linecap:butt;stroke-linejoin:miter;stroke-opacity:1"
       d="m 90.66492,37.026732 c 0.02186,0.163047 -0.01093,0.327919 0,0.491331 0.03152,0.471467 0.03113,0.0081 0.05475,0.573228 0.0046,0.10909 -0.0052,0.218496 0,0.327557 0.0083,0.173638 0.0374,0.345659 0.05475,0.518631 0.03287,0.327795 0.05924,0.656939 0.109493,0.98267 0.03372,0.218525 0.06983,0.437589 0.109492,0.655111 0.02479,0.135927 0.06494,0.272391 0.08212,0.409448 0.0068,0.05417 0,0.109183 0,0.163777 0,0.127384 0,0.254767 0,0.382151"
       id="path408" />
    <path
       style="fill:none;stroke:var(--main);stroke-width:0.264583px;stroke-linecap:butt;stroke-linejoin:miter;stroke-opacity:1"
       d="m 138.82938,43.907969 c -0.0639,-0.08189 -0.13574,-0.158123 -0.19161,-0.245669 -0.0487,-0.07634 0.18561,-0.386828 0.21898,-0.436745 0.11076,-0.165666 0.22686,-0.33646 0.38323,-0.464034 0.0509,-0.04156 0.10949,-0.07279 0.16424,-0.109188 0.0547,-0.0364 0.10541,-0.07985 0.16424,-0.109186 0.0516,-0.02574 0.10949,-0.03639 0.16424,-0.05459 0.18744,-0.0623 0.24185,-0.08189 0.43797,-0.08189 0.0349,0 0.24284,-0.01027 0.27374,0 2e-5,8e-6 0.16422,0.109175 0.16424,0.109188 0.0847,0.05631 0.1769,0.120446 0.21898,0.218371 0.0148,0.03447 0.0192,0.07256 0.0274,0.109183 0.048,0.215321 0.022,0.354007 0,0.573225 -0.006,0.06257 -0.0351,0.427366 -0.0547,0.518631 -0.0162,0.07552 -0.0793,0.225105 -0.10949,0.30026 -3e-5,6.3e-5 -0.10946,0.272902 -0.1095,0.272965 -0.0238,0.04746 -0.0566,0.0899 -0.0821,0.136483 -0.0825,0.150886 -0.14922,0.307501 -0.21898,0.464039 -0.0526,0.117973 -0.14255,0.252386 -0.16424,0.382149 -0.004,0.02692 0,0.05459 0,0.08189 0,0.0059 -0.008,0.09727 0,0.109186 0.0143,0.02143 0.0365,0.0364 0.0547,0.05459 0.10199,0.101695 0.1147,0.06542 0.24636,0.109183 0.27156,0.09027 -0.009,0.04068 0.38323,0.08189 0.0912,0.0096 0.18215,0.02273 0.27374,0.0273 0.16403,0.0082 0.32848,0 0.49272,0 0.0912,0 0.18293,0.009 0.27373,0 0.12015,-0.01199 0.2384,-0.05586 0.35585,-0.08189 0.1812,-0.04016 0.36486,-0.07608 0.54747,-0.109189 0.21196,-0.03843 0.10156,-0.0065 0.24636,-0.05459"
       id="path410" />
    <path
       style="fill:none;stroke:var(--main);stroke-width:0.264583px;stroke-linecap:butt;stroke-linejoin:miter;stroke-opacity:1"
       d="m 145.91908,45.54575 c 0.21342,0.176509 0.23589,0.170196 0.32848,0.354854 0.009,0.0182 0.0234,0.03463 0.0274,0.05459 0.0139,0.06934 -0.0125,0.124241 -0.0274,0.191074 -0.0101,0.04529 -0.0115,0.09289 -0.0274,0.13648 -0.0668,0.183216 -0.27381,0.436822 -0.41059,0.573225 -0.16183,0.161372 -0.13123,0.09656 -0.27374,0.218372 -0.0294,0.02511 -0.0519,0.05778 -0.0821,0.08189 -0.0422,0.03369 -0.10949,0.04411 -0.10949,0.109186"
       id="path412" />
    <g
       id="g1144"
       transform="translate(5.773783,-1.0863634)">
      <path
         style="fill:none;stroke:var(--main);stroke-width:0.264583px;stroke-linecap:butt;stroke-linejoin:miter;stroke-opacity:1"
         d="m 143.3384,42.912497 c 0.19258,-0.267341 -0.11665,-0.178038 -0.16424,-0.272963 -0.008,-0.01627 0.0129,-0.04174 0,-0.05459 -0.006,-0.0064 -0.0274,-0.0091 -0.0274,0 0,0.0091 0.0315,-0.0082 0.0274,0 -0.0116,0.02305 -0.0432,0.03155 -0.0548,0.05459 -0.0129,0.02569 -0.0519,0.231293 -0.0547,0.245668 -0.0383,0.190802 -0.0197,0.09066 -0.0547,0.300263 -0.0642,0.384288 1e-4,-0.05596 -0.0274,0.327554 -0.005,0.07317 -0.0225,0.145177 -0.0274,0.218374 -0.0108,0.161732 0,0.329043 0,0.491331 0,0.03766 -0.009,0.310232 0,0.327559 0.0161,0.03214 0.0884,0.08814 0.10949,0.109183 0.11843,0.1181 0.19587,0.109895 0.35585,0.136486 0.16288,0.02707 0.33186,0.04487 0.49272,0.08189 0.0647,0.0149 0.12649,0.0416 0.19162,0.05459 0.0754,0.01503 0.43819,0.04941 0.49272,0.05459 0.10033,0.0095 0.20088,0.01677 0.30111,0.0273 0.0732,0.0077 0.14557,0.02273 0.21899,0.02729 0.0729,0.0046 0.14599,0 0.21898,0 0.15512,0 0.31023,0 0.46535,0 0.14599,0 0.29198,0 0.43798,0 0.10036,0 0.2015,0.01241 0.3011,0 0.0286,-0.0036 0.0537,-0.02257 0.0821,-0.02729 0.054,-0.009 0.10949,0 0.16424,0 0.10949,0 0.21899,0 0.32848,0"
         id="path416" />
      <path
         style="fill:none;stroke:var(--main);stroke-width:0.264583px;stroke-linecap:butt;stroke-linejoin:miter;stroke-opacity:1"
         d="m 145.85675,42.776017 c 0,0.08189 0,0.163779 0,0.245668 -0.009,0.02729 -0.0233,0.0534 -0.0274,0.08189 -0.0103,0.07205 0,0.145582 0,0.218372 0,0.136482 0,0.272965 0,0.409448 0,0.245665 0,0.491331 0,0.736999 0,0.109186 -0.008,0.218652 0,0.32756 0.005,0.07317 0.0228,0.145153 0.0274,0.218371 0.005,0.07265 -0.005,0.145722 0,0.218368 0.0154,0.246259 0.0689,0.493901 0.10949,0.737003 1e-5,4.2e-5 0.0547,0.327511 0.0547,0.327556 0.0119,0.1425 0,0.29354 0,0.436743 0,0.272965 0,0.545928 0,0.81889 0,0.09099 0,0.181978 0,0.272966 0,0.02453 -0.009,0.11925 0,0.136482 0.006,0.01151 0.0183,0.0182 0.0274,0.0273"
         id="path418" />
    </g>
    <path
       style="fill:none;stroke:var(--main);stroke-width:0.264583px;stroke-linecap:butt;stroke-linejoin:miter;stroke-opacity:1"
       d="m 57.611054,46.866745 c -0.119627,-0.06628 -0.203965,-0.132739 -0.328479,-0.16378 -0.04469,-0.01114 -0.265861,-0.05189 -0.301105,-0.05459 -0.118272,-0.0091 -0.237238,0 -0.355857,0 -0.100368,0 -0.201031,-0.0077 -0.301105,0 -0.202432,0.01553 -0.284563,0.04235 -0.49272,0.08189 -0.291804,0.05543 -0.58558,0.100836 -0.875948,0.16378 -0.389819,0.08451 -0.779109,0.177006 -1.149682,0.327557 -0.483053,0.196244 -0.243734,0.122896 -0.711707,0.382151 -0.12486,0.06917 -0.258602,0.12148 -0.383227,0.191076 -0.103786,0.05795 -0.199956,0.12863 -0.301107,0.191072 -0.09048,0.05585 -0.187128,0.102092 -0.273735,0.16378 -0.105508,0.07515 -0.199844,0.164885 -0.301106,0.245668 -0.25372,0.202404 -0.517644,0.392107 -0.766453,0.600519 -0.379194,0.317627 -0.221849,0.206465 -0.547467,0.545926 -1.02007,1.06344 0.352118,-0.410877 -0.739081,0.764299 -0.100915,0.108683 -0.208302,0.211876 -0.301108,0.327557 -0.226014,0.281723 -0.326301,0.506015 -0.520093,0.818891 -0.09709,0.156757 -0.199645,0.310075 -0.301107,0.464039 -0.370889,0.562811 -0.299266,0.41706 -0.629588,1.009968 -0.08523,0.152987 -0.178842,0.30245 -0.24636,0.464039 -0.06991,0.16732 -0.110773,0.345355 -0.164239,0.518631 -0.05603,0.181586 -0.113721,0.362733 -0.164242,0.545928 -0.109033,0.395367 -0.180274,0.745704 -0.273732,1.146447 -0.26085,1.118505 -0.02197,0.02768 -0.246361,1.146451 -0.03474,0.173238 -0.08037,0.34436 -0.109494,0.518631 -0.02567,0.153622 -0.0375,0.309242 -0.05475,0.464036 -0.05371,0.482053 -0.09603,0.961036 -0.08212,1.44671 0.01896,0.661861 0.112646,1.322808 0.273733,1.965341 0.03922,0.156427 0.0966,0.30788 0.136867,0.464037 0.0419,0.162481 0.07483,0.32716 0.109493,0.491337 0.03834,0.181596 0.06213,0.366471 0.109493,0.545928 0.08267,0.313242 0.273708,0.784714 0.410602,1.064558 0.301835,0.617022 0.266351,0.451769 0.602213,1.009965 0.175865,0.292286 0.37183,0.707353 0.574841,0.982671 0.114944,0.155884 0.260375,0.287014 0.383228,0.436745 0.349095,0.425471 0.336333,0.485796 0.711706,0.873482 0.388094,0.400825 0.839868,0.733674 1.286548,1.064559 0.47495,0.351827 0.95339,0.706488 1.478161,0.98267 0.169669,0.0893 0.34673,0.16378 0.520095,0.245669 0.173364,0.08189 0.345166,0.167171 0.520093,0.245668 0.190115,0.08531 0.384896,0.15998 0.574842,0.245668 0.572288,0.258165 0.572161,0.307753 1.177053,0.491331 0.215963,0.06554 0.436944,0.113501 0.656962,0.16378 0.412042,0.09416 0.922623,0.193482 1.341294,0.245668 0.46564,0.05804 0.816894,0.06196 1.286546,0.08189 0.839052,0.0356 0.420123,0.03719 1.259175,0 0.200747,-0.0089 0.402214,-0.0078 0.602213,-0.0273 0.174678,-0.01699 0.34627,-0.0577 0.520096,-0.08189 0.218575,-0.03041 0.43982,-0.04252 0.656961,-0.08189 0.582869,-0.105677 1.148646,-0.330023 1.697148,-0.545926 0.15603,-0.06142 0.309007,-0.13045 0.465347,-0.191076 0.307411,-0.119214 0.72213,-0.246396 1.012814,-0.409448 0.05812,-0.0326 0.757423,-0.5466 0.79383,-0.573223 0.228462,-0.167068 0.5296,-0.374282 0.739079,-0.573225 0.204166,-0.193894 0.321754,-0.376195 0.49272,-0.600519 0.09055,-0.118814 0.183941,-0.235464 0.273735,-0.354854 0.399717,-0.531458 0.799656,-1.082 1.012812,-1.71967 0.05668,-0.169574 0.0945,-0.344929 0.136866,-0.518634 0.07587,-0.31102 0.158041,-0.691898 0.191617,-1.009965 0.01818,-0.172161 0.01799,-0.345768 0.02737,-0.518633 0.0089,-0.16379 0.01799,-0.32757 0.02737,-0.491334 0.01712,-0.298757 0.03542,-0.602067 0.05475,-0.900782 0.0088,-0.136501 0.02294,-0.27273 0.02737,-0.409445 0.01532,-0.473565 -0.02914,-0.947018 -0.05475,-1.419413 -0.02934,-0.541229 -0.06297,-1.076709 -0.164243,-1.610487 -0.06641,-0.350023 -0.145587,-0.641011 -0.246359,-0.982668 -0.05118,-0.173514 -0.19731,-0.641083 -0.273732,-0.818896 -0.05627,-0.130918 -0.131467,-0.252965 -0.191614,-0.382148 -0.05852,-0.12569 -0.109496,-0.254765 -0.164243,-0.382146 -0.05475,-0.127383 -0.113416,-0.253153 -0.164238,-0.382153 -0.04959,-0.125889 -0.08876,-0.25568 -0.136866,-0.382146 -0.13276,-0.349017 -0.180245,-0.464712 -0.355854,-0.791596 -0.113287,-0.210876 -0.343884,-0.592103 -0.465346,-0.791597 -0.07229,-0.118721 -0.150929,-0.233661 -0.218988,-0.354853 -0.05981,-0.106498 -0.109493,-0.218372 -0.16424,-0.327557 -0.140653,-0.280519 -0.269944,-0.565666 -0.410602,-0.846188 -0.04562,-0.09099 -0.08439,-0.185748 -0.136866,-0.272963 -0.09426,-0.156665 -0.294521,-0.408471 -0.410602,-0.545928 -0.07078,-0.08381 -0.150892,-0.159657 -0.218985,-0.245668 -0.258656,-0.32671 -0.421034,-0.714113 -0.684334,-1.037262 -0.06117,-0.07508 -0.123042,-0.149992 -0.191614,-0.218371 -0.0595,-0.05933 -0.127741,-0.109188 -0.191611,-0.16378 -1.32e-4,-1.14e-4 -0.383101,-0.327438 -0.383228,-0.327557 -0.526796,-0.484909 0.172601,0.144825 -0.301109,-0.327554 -0.0595,-0.05933 -0.127741,-0.109188 -0.191611,-0.16378 -0.14546,-0.12433 -0.249568,-0.220501 -0.410602,-0.327556 -0.06122,-0.0407 -0.128958,-0.07074 -0.191614,-0.109189 -0.05603,-0.03438 -0.107413,-0.07613 -0.16424,-0.109183 -0.05288,-0.03076 -0.111746,-0.05048 -0.16424,-0.08189 -0.07822,-0.0468 -0.143079,-0.113316 -0.218988,-0.16378 -0.08855,-0.05886 -0.178575,-0.116334 -0.273732,-0.16378 -0.184235,-0.09186 -0.394057,-0.148592 -0.574842,-0.245663 -0.05792,-0.0311 -0.108733,-0.07396 -0.16424,-0.109188 -0.300918,-0.190957 0.0097,0.0094 -0.246361,-0.13648 -0.08476,-0.0483 -0.165095,-0.109757 -0.246359,-0.16378 -0.0794,-0.05278 -0.161116,-0.121277 -0.246362,-0.163779 -0.110508,-0.0551 -0.315648,-0.08208 -0.437971,-0.109186 -0.145987,-0.03235 -0.294175,-0.06822 -0.437975,-0.109185 -0.05548,-0.0158 -0.110653,-0.03322 -0.164238,-0.05459 -0.03788,-0.01511 -0.07161,-0.03948 -0.109493,-0.05459 -0.07863,-0.03136 -0.164934,-0.05869 -0.246361,-0.08189 -0.03618,-0.01029 -0.07426,-0.01413 -0.109493,-0.02729 -0.0382,-0.01429 -0.0713,-0.04031 -0.109496,-0.0546 -0.03523,-0.01318 -0.073,-0.0182 -0.109493,-0.02729 -0.0365,-0.0091 -0.07217,-0.02265 -0.109493,-0.0273 -0.07244,-0.009 -0.145991,0 -0.218986,0 -0.191613,0 -0.383227,0 -0.57484,0"
       id="path420" />
    <path
       style="fill:none;stroke:var(--main);stroke-width:0.264583px;stroke-linecap:butt;stroke-linejoin:miter;stroke-opacity:1"
       d="m 46.765656,60.116303 c 0.311232,0.218368 0.62893,0.427802 0.933696,0.655111 2.7e-5,1.8e-5 0.328458,0.327533 0.328481,0.327554 l 0.547467,0.545928 c 0.160637,0.160186 0.317791,0.318674 0.492721,0.464039 0.08977,0.0746 0.186639,0.140661 0.273734,0.218369 0.25996,0.231941 0.191671,0.209325 0.410599,0.409448 0.05254,0.04802 0.1117,0.08845 0.16424,0.136482 0.05707,0.05216 0.10547,0.113544 0.164241,0.163778 0.234048,0.200046 0.514268,0.31927 0.766453,0.491333 0.258124,0.176118 0.462513,0.422794 0.739081,0.573225 0.104158,0.05665 0.218987,0.09099 0.328481,0.136483 0.559619,0.232519 0.105594,0.05322 0.574841,0.218371 0.112859,0.03972 0.428111,0.16432 0.520095,0.191074 0.116875,0.03399 0.237478,0.05356 0.355853,0.08189 0.109745,0.02627 0.218687,0.05582 0.328479,0.08189 0.08184,0.01942 0.165777,0.03048 0.24636,0.05459 0.102286,0.0306 0.198277,0.08047 0.301109,0.109185 0.125814,0.03513 0.255485,0.05459 0.383227,0.08189 0.588468,0.125746 0.172205,0.04292 0.711707,0.13648 0.100504,0.01744 0.199768,0.04294 0.301105,0.0546 0.13627,0.01569 0.273755,0.01788 0.410601,0.02729 0.127765,0.0088 0.255567,0.01712 0.383227,0.0273 0.100463,0.008 0.200415,0.0231 0.301109,0.0273 0.118516,0.0049 0.237235,0 0.355853,0 h 0.793826 c 0.345803,0 0.694714,0.01188 1.040189,0 1.369024,-0.04707 -0.440968,-0.0058 0.684332,-0.05459 0.109392,-0.0047 0.219063,0.004 0.328483,0 0.457348,-0.01688 0.913009,-0.06967 1.368669,-0.109186 0.227978,-0.01976 0.457409,-0.02508 0.684331,-0.05459 0.09227,-0.01201 0.181952,-0.03934 0.273736,-0.05459 0.07256,-0.01206 0.145989,-0.0182 0.218985,-0.0273 0.08212,-0.0182 0.163726,-0.0389 0.246361,-0.05459 0.309401,-0.05877 0.623724,-0.09175 0.930696,-0.163779 0.185851,-0.04361 0.362238,-0.117602 0.547465,-0.163778 0.316275,-0.07885 0.649952,-0.10864 0.958067,-0.218373 0.181459,-0.06462 0.345858,-0.165473 0.520094,-0.245663 0.0631,-0.02904 0.127743,-0.05459 0.191616,-0.08189 0.07299,-0.0364 0.145146,-0.07454 0.218985,-0.109185 0.08131,-0.03816 0.165974,-0.06911 0.246359,-0.109186 0.06579,-0.0328 0.126847,-0.07441 0.191614,-0.109185 0.0539,-0.02894 0.110501,-0.05266 0.16424,-0.08189 0.487852,-0.265353 -0.173061,0.08716 0.246362,-0.16378 0.0525,-0.03141 0.11136,-0.05113 0.16424,-0.08189 0.113652,-0.06611 0.216416,-0.149603 0.32848,-0.218371 0.173845,-0.10668 0.197358,-0.09984 0.355854,-0.218372 0.057,-0.04263 0.109085,-0.09148 0.16424,-0.13648 0.09044,-0.07379 0.185785,-0.141631 0.273735,-0.218371 0.02913,-0.02543 0.05239,-0.05718 0.08212,-0.08189 0.02527,-0.02101 0.05642,-0.03409 0.08212,-0.05459 2.1e-5,-1.6e-5 0.109471,-0.109162 0.109492,-0.109183 0.073,-0.07279 0.230648,-0.156403 0.303647,-0.229192"
       id="path440"
       sodipodi:nodetypes="cscssssssssssssssscsscscsssccsssccsssscsssssssssssscc" />
    <path
       style="fill:none;stroke:var(--main);stroke-width:0.065;stroke-linecap:round;stroke-linejoin:miter;stroke-dasharray:0.4, 0.5;stroke-dashoffset:0;stroke-opacity:1"
       d="m 46.765656,60.116302 c 0.103589,0.01881 0.205986,0.04615 0.310766,0.05642 0.01013,0.0011 -0.0099,-0.01786 -0.01369,-0.0273 -0.03383,-0.08435 0.0047,-0.0042 -0.02737,-0.06824 -0.01236,-0.02466 -0.03437,-0.05522 -0.04106,-0.08189 -0.0055,-0.02207 0,-0.0455 0,-0.06824 0,-0.04094 0,-0.08189 0,-0.122832 0,-0.01365 -0.0022,-0.02748 0,-0.04095 0.0047,-0.02839 0.01825,-0.05459 0.02737,-0.08189 1.6e-5,-4.5e-5 0.02736,-0.08184 0.02737,-0.08189 0.01133,-0.02824 0.02973,-0.05365 0.04106,-0.08189 0.0054,-0.01336 0.0072,-0.02808 0.01368,-0.04095 0.0085,-0.01704 0.06979,-0.110532 0.08212,-0.122833 0.01614,-0.01609 0.03758,-0.02595 0.05475,-0.04094 0.01942,-0.01693 0.03546,-0.0375 0.05475,-0.05459 0.0778,-0.06896 0.06253,-0.04535 0.150554,-0.109185 0.07068,-0.05125 0.136304,-0.110268 0.205299,-0.16378 0.01801,-0.01397 0.03861,-0.02484 0.05475,-0.04094 0.01612,-0.01609 0.02622,-0.03732 0.04106,-0.05459 1.4e-5,-1.5e-5 0.08211,-0.08188 0.08212,-0.08189 1.38e-4,-1.16e-4 0.109356,-0.08177 0.109493,-0.08189 0.01942,-0.01693 0.03438,-0.0388 0.05475,-0.05459 0.02101,-0.0163 0.04562,-0.0273 0.06843,-0.04094 0.09086,-0.05437 0.185568,-0.105169 0.273732,-0.16378 0.07579,-0.05039 0.143196,-0.113392 0.218988,-0.16378 0.07303,-0.04854 0.154431,-0.08382 0.232673,-0.122832 0.05475,-0.0273 0.108522,-0.05663 0.16424,-0.08189 0.02237,-0.01013 0.04695,-0.0154 0.06843,-0.0273 0.01993,-0.01103 0.03619,-0.02772 0.05475,-0.04094 0.05022,-0.03577 0.09927,-0.07509 0.150554,-0.109186 0.04056,-0.02696 0.106923,-0.06324 0.150554,-0.08189 0.03583,-0.01532 0.07417,-0.0245 0.109494,-0.04095 0.03332,-0.0155 0.06342,-0.0372 0.09581,-0.05459 0.08105,-0.04352 0.07748,-0.03331 0.150555,-0.08189 0.01898,-0.01262 0.03541,-0.02889 0.05475,-0.04095 0.01731,-0.01079 0.03691,-0.01741 0.05475,-0.0273 0.02325,-0.01288 0.04422,-0.02997 0.06843,-0.04094 0.02627,-0.01191 0.05548,-0.01622 0.08212,-0.0273 0.02825,-0.01175 0.05356,-0.02999 0.08212,-0.04094 0.03101,-0.01188 0.06387,-0.0182 0.09581,-0.02729 3.5e-5,-10e-6 0.191579,-0.05458 0.191613,-0.05459 0.09381,-0.03118 0.17921,-0.08018 0.273733,-0.109185 0.06652,-0.0204 0.137738,-0.03874 0.205301,-0.05459 0.04094,-0.0096 0.08303,-0.01479 0.12318,-0.0273 0.03316,-0.01035 0.06309,-0.02929 0.09581,-0.04094 0.20061,-0.07145 -0.0026,0.01466 0.177926,-0.05459 0.141627,-0.05432 0.05207,-0.03096 0.205301,-0.08189 0.187404,-0.06229 0.08434,-0.02381 0.273735,-0.06824 0.03233,-0.0076 0.06371,-0.01876 0.0958,-0.0273 0.113015,-0.03005 0.227476,-0.05902 0.342168,-0.08189 0.127393,-0.0254 0.254554,-0.03856 0.383226,-0.05459 0.073,-0.0091 0.145829,-0.01961 0.218988,-0.0273 0.05011,-0.0053 0.100622,-0.0069 0.150552,-0.01365 0.05054,-0.0069 0.100062,-0.02011 0.150555,-0.0273 0.04539,-0.0065 0.09158,-0.0065 0.136867,-0.01365 0.08749,-0.01378 0.172674,-0.04007 0.260047,-0.05459 0.393313,-0.06537 -0.01001,0.0061 0.383226,-0.04095 0.512104,-0.06128 -0.255749,0.0078 0.328481,-0.05459 0.0682,-0.0073 0.137078,-0.0066 0.205301,-0.01365 0.406465,-0.04193 -0.0096,-0.01087 0.355853,-0.05459 0.05906,-0.0071 0.11878,-0.0073 0.177926,-0.01365 0.0718,-0.0077 0.321479,-0.04385 0.396915,-0.05459 0.06387,-0.0091 0.12803,-0.01635 0.191614,-0.0273 0.543568,-0.09346 -0.132972,0.01156 0.410599,-0.08189 0.06358,-0.01093 0.127971,-0.01672 0.191614,-0.0273 0.329349,-0.05474 0.110903,-0.0288 0.451661,-0.08189 0.204438,-0.03185 0.410711,-0.05548 0.6159,-0.08189 0.06847,-0.0088 0.136655,-0.01995 0.2053,-0.0273 0.181557,-0.01939 0.365357,-0.02797 0.547466,-0.04094 0.06387,-0.0046 0.128035,-0.006 0.191614,-0.01365 0.05064,-0.0061 0.100017,-0.02043 0.150555,-0.0273 0.176347,-0.02397 0.356506,-0.0268 0.533779,-0.04094 0.100462,-0.008 0.200413,-0.02313 0.301107,-0.0273 0.123074,-0.0051 0.24636,0 0.369541,0 0.09581,0 0.191704,-0.0042 0.287421,0 0.05943,0.0026 0.118618,0.0091 0.177926,0.01365 0.155378,0.01193 0.310233,0.02622 0.465348,0.04095 0.06415,0.0061 0.272238,0.02506 0.32848,0.0273 0.10029,0.004 0.200864,-0.005 0.301109,0 0.146333,0.0073 0.29142,0.03459 0.437973,0.04094 0.400873,0 -0.08619,-0.005 0.287419,0.01365 0.04557,0.0024 0.09125,0 0.136869,0 0.150554,0 0.301107,0 0.45166,0 0.07756,0 0.15522,-0.0041 0.232672,0 4.2e-5,2e-6 0.273693,0.02729 0.273735,0.0273 0.08217,0.0086 0.164986,0.01296 0.246359,0.0273 0.07846,0.01381 0.15471,0.03822 0.232675,0.05459 0.132265,0.02777 0.264945,0.05265 0.396914,0.08189 0.04106,0.0091 0.08282,0.01545 0.12318,0.0273 0.102997,0.03021 0.121401,0.04974 0.218985,0.09554 0.06392,0.03 0.195384,0.08662 0.260048,0.109186 0.254214,0.08872 0.02679,-0.0057 0.246359,0.08189 0.129212,0.05154 0.06954,0.03183 0.205301,0.09554 0.04066,0.01908 0.08299,0.03455 0.123179,0.05459 0.08402,0.04189 0.163341,0.09265 0.246362,0.13648 0.03606,0.01905 0.0745,0.03366 0.109492,0.05459 0.08279,0.04954 0.157403,0.117379 0.232672,0.177426 0.02281,0.0182 0.04481,0.03746 0.06844,0.05459 0.02661,0.01929 0.05665,0.03381 0.08212,0.05459 0.02495,0.02037 0.04347,0.04788 0.06843,0.06824 0.153599,0.12532 0.01064,-0.01614 0.164238,0.109186 0.02495,0.02037 0.04446,0.04672 0.06843,0.06824 0.02172,0.0195 0.04777,0.03399 0.06843,0.05459 0.05939,0.05922 0.09103,0.136162 0.136869,0.204724 9.3e-5,1.37e-4 0.08203,0.109043 0.08212,0.109185 0.07598,0.121227 -0.03099,-0.01881 0.06843,0.122833 1.9e-5,2.9e-5 0.109474,0.136459 0.109493,0.136483 0.05434,0.06773 0.106071,0.140271 0.164243,0.204721 0.151114,0.150696 -0.0079,-0.01288 0.123179,0.136483 0.03808,0.0434 0.08616,0.07854 0.123179,0.122833 0.01053,0.01259 0.01685,0.02835 0.02737,0.04095 0.01238,0.01484 0.02867,0.02611 0.04106,0.04094 0.02106,0.02519 0.0365,0.05459 0.05475,0.08189 0.03449,0.0516 0.07219,0.100532 0.109492,0.15013 0.01368,0.0182 0.02604,0.03748 0.04106,0.05459 0.034,0.03874 0.0752,0.07071 0.109495,0.109186 0.01939,0.02177 0.03534,0.04647 0.05474,0.06824 0.01714,0.01924 0.03775,0.03522 0.05475,0.05459 0.01503,0.01712 0.02622,0.03733 0.04106,0.05459 0.03396,0.03951 0.09421,0.08239 0.123182,0.122836 0.01185,0.01654 0.01553,0.03804 0.02737,0.05459 0.01124,0.01572 0.0298,0.02524 0.04106,0.04094 1.9e-5,2.7e-5 0.05473,0.109157 0.05475,0.109186 0.03629,0.07237 0.06925,0.148135 0.109495,0.218368 0.07205,0.125733 -0.0173,-0.04384 0.05475,0.08189 0.01013,0.01767 0.01656,0.03734 0.02737,0.05459 0.01209,0.01929 0.02897,0.0353 0.04106,0.05459 0.01082,0.01725 0.01656,0.03734 0.02737,0.05459 0.01209,0.01929 0.02841,0.03566 0.04106,0.05459 0.01476,0.02207 0.0263,0.04617 0.04106,0.06824 0.05032,0.07527 0.109802,0.145998 0.164237,0.218374 0.02737,0.03639 0.05244,0.07465 0.08212,0.109186 0.01259,0.01466 0.02866,0.02611 0.04106,0.04094 8e-6,8e-6 0.05474,0.08188 0.05475,0.08189 0.03314,0.04956 0.06518,0.09924 0.09581,0.15013 0.05055,0.08401 0.0032,0.0039 0.05475,0.06824 0.0307,0.03827 0.05141,0.08456 0.08212,0.122833 0.0081,0.01005 0.01931,0.01725 0.02737,0.0273 1e-5,1.3e-5 0.05473,0.08187 0.05474,0.08189 0.0105,0.01744 0.01513,0.03833 0.02737,0.05459 0.0078,0.01029 0.01963,0.01699 0.02737,0.0273 0.01376,0.01828 0.01947,0.04856 0.02737,0.06824 0.01119,0.0279 0.02758,0.05501 0.04106,0.08189 0.0091,0.0182 0.01513,0.03832 0.02737,0.05459 0.0078,0.01029 0.01963,0.01699 0.02737,0.02729 0.01225,0.01627 0.01826,0.0364 0.02738,0.05459 0.02281,0.0455 0.04562,0.09099 0.06843,0.136483 0.01773,0.03538 0.03278,0.07632 0.05475,0.109186 0.0036,0.0053 0.0108,0.0079 0.01368,0.01365 0.0053,0.01056 0,0.06693 0,0.08189"
       id="path550" />
    <path
       style="fill:none;stroke:var(--main);stroke-width:0.165;stroke-linecap:butt;stroke-linejoin:miter;stroke-dasharray:none;stroke-opacity:1"
       d="m 50.899019,72.897352 c 0,0.09554 -0.0023,0.191103 0,0.286615 0.0064,0.26869 0.01526,0.295905 0.04106,0.559576 0.03385,0.345974 0.06625,0.692292 0.109493,1.037261 0.0086,0.06832 0.02002,0.136269 0.02737,0.204724 0.01658,0.154356 0.02285,0.309743 0.04106,0.46404 0.0087,0.07333 0.02068,0.147238 0.04106,0.218368 1e-6,3e-6 0.02737,0.08189 0.02737,0.08189 0.01527,0.03044 0.02737,0.003 0.02737,0.05459"
       id="path1106" />
    <path
       style="fill:none;stroke:var(--main);stroke-width:0.264583px;stroke-linecap:butt;stroke-linejoin:miter;stroke-opacity:1"
       d="m 52.801468,75.840363 c 0.05018,-0.01654 0.09793,-0.04483 0.150552,-0.04959 0.02555,-0.0024 0.191125,0.06294 0.205301,0.06824 0.0365,0.01365 0.07462,0.02355 0.109493,0.04094 0.09096,0.04535 0.164241,0.123428 0.164241,0.232018 0,0.216175 -0.07145,0.333571 -0.164241,0.518631"
       id="path1110" />
    <path
       style="fill:none;stroke:var(--main);stroke-width:0.264583px;stroke-linecap:butt;stroke-linejoin:miter;stroke-opacity:1"
       d="m 55.853598,73.497874 c -0.12099,0.03527 -0.188136,0.105717 -0.273734,0.191074 -0.0605,0.06033 -0.10963,0.100344 -0.150555,0.177427 -0.02298,0.0433 -0.03795,0.09043 -0.05475,0.136483 -0.03396,0.09313 -0.07204,0.199766 -0.08212,0.30026 -0.0045,0.04527 0,0.09099 0,0.136482 0,0.237443 -0.009,0.146185 0.02737,0.382149 0.0084,0.0547 0.01337,0.11023 0.02737,0.163779 0.01579,0.06034 0.08622,0.225698 0.109493,0.28661 0.01901,0.04976 0.03284,0.101579 0.05475,0.150133 0.03044,0.06746 0.09751,0.168248 0.136867,0.232018 3e-6,6e-6 0.08211,0.136478 0.08212,0.136483 0.01503,0.01712 0.03577,0.02833 0.05475,0.04094 0.115069,0.0765 0.18899,0.08891 0.32848,0.09554 0.04557,0.0021 0.09152,0.005 0.136867,0 0.1366,-0.01513 0.249084,-0.09897 0.355853,-0.177424 0.137528,-0.101053 0.29382,-0.219909 0.383227,-0.368504 0.06834,-0.113575 0.05201,-0.114628 0.09581,-0.245666 0.01233,-0.03688 0.0316,-0.07147 0.04106,-0.109185 0.0038,-0.01503 0.02652,-0.224407 0.02737,-0.232019 0.0046,-0.04094 0.01152,-0.08169 0.01369,-0.122835 0.0058,-0.11053 -2.45e-4,-0.152077 -0.01369,-0.259316 -8.47e-4,-0.0067 -0.0228,-0.163756 -0.02737,-0.177424 -0.0097,-0.02896 -0.02737,-0.05459 -0.04106,-0.08189 -0.01369,-0.0273 -0.02409,-0.05651 -0.04106,-0.08189 -0.01977,-0.02957 -0.04671,-0.05372 -0.06843,-0.08189 -0.02393,-0.03102 -0.04523,-0.06398 -0.06843,-0.09554 -0.02698,-0.03669 -0.05681,-0.07133 -0.08212,-0.109185 -0.0204,-0.03051 -0.03547,-0.0643 -0.05475,-0.09554 -0.01724,-0.02794 -0.03817,-0.05355 -0.05475,-0.08189 -0.01542,-0.02635 -0.02532,-0.05572 -0.04106,-0.08189 -0.01174,-0.0195 -0.02737,-0.0364 -0.04106,-0.05459 -0.01369,-0.0182 -0.02622,-0.03733 -0.04106,-0.05459 -0.04976,-0.05789 -0.09689,-0.06569 -0.164242,-0.09554 -1.8e-5,-1.1e-5 -0.109473,-0.05459 -0.109493,-0.05459 -0.0757,-0.02516 -0.190957,-0.01365 -0.273734,-0.01365 -0.0092,0 -0.03296,-0.004 -0.04106,0 -0.01641,0.0082 -0.02465,0.03276 -0.04106,0.04095 -0.01552,0.0077 -0.02737,-0.01019 -0.02737,0.0273"
       id="path1112" />
    <path
       style="fill:none;stroke:var(--main);stroke-width:0.264583px;stroke-linecap:butt;stroke-linejoin:miter;stroke-opacity:1"
       d="m 58.905727,75.657903 c 0.09388,0.0104 0.171005,0.03557 0.24636,0.09193 0.03096,0.02315 0.05475,0.05459 0.08212,0.08189 0.02464,0.02455 0.05414,0.04864 0.06843,0.08189 0.03807,0.08858 0.03587,0.28 0.01368,0.368501 -0.0084,0.03362 -0.02737,0.06369 -0.04106,0.09554 -0.01369,0.03185 -0.02356,0.06562 -0.04106,0.09554 -0.01472,0.02516 -0.03722,0.04493 -0.05475,0.06824 -0.0024,0.0031 -0.05418,0.08144 -0.05475,0.08189 -0.01127,0.009 -0.02766,0.0083 -0.04106,0.01365 -0.0095,0.0038 -0.01825,0.0091 -0.02737,0.01365"
       id="path1114" />
    <path
       style="fill:none;stroke:var(--main);stroke-width:0.264583px;stroke-linecap:butt;stroke-linejoin:miter;stroke-opacity:1"
       d="m 61.656751,72.692631 c 0.0098,0.247375 0.0504,0.491865 0.08212,0.737002 0.0088,0.06828 0.01384,0.137218 0.02737,0.204724 0.01389,0.06926 0.0365,0.136483 0.05475,0.204724 0.158874,0.594103 -0.03719,-0.148325 0.0958,0.382148 0.01262,0.05032 0.02612,0.100449 0.04106,0.15013 0.01243,0.04134 0.03056,0.08096 0.04106,0.122836 0.0078,0.0312 0.0084,0.0638 0.01368,0.09553 5e-6,4e-5 0.02736,0.136441 0.02737,0.13648 0.0034,0.02709 0,0.05459 0,0.08189 0,0.07734 0,0.154681 0,0.232019 0,0.02967 -0.006,0.09912 0,0.122835 0.0024,0.0099 0.0099,0.01786 0.01368,0.0273 0.01072,0.02671 0.02172,0.05367 0.02737,0.08189 0.0036,0.01783 0,0.0364 0,0.05459 0,0.0364 0,0.07279 0,0.109186"
       id="path1116" />
    <path
       style="fill:none;stroke:var(--main);stroke-width:0.264583px;stroke-linecap:butt;stroke-linejoin:miter;stroke-opacity:1"
       d="m 93.285075,57.021868 c -0.09033,0.142873 -0.191159,0.279623 -0.270981,0.42862 -0.01215,0.02267 0,0.05147 0,0.0772 0,0.05147 0,0.102939 0,0.154409 0,0.141546 -0.01011,0.283453 0,0.424637 0.0074,0.103479 0.0258,0.205878 0.03871,0.308819 0.0057,0.04576 0.06284,0.516036 0.07742,0.579046 0.01836,0.07931 0.05162,0.154411 0.07742,0.231619 0.05515,0.164978 0.125966,0.386371 0.193561,0.540438 0.04626,0.105455 0.10323,0.205883 0.154845,0.308824 0.05162,0.102942 0.09634,0.209638 0.154848,0.308825 0.235312,0.398912 0.566846,0.719415 0.851659,1.080883 0.194469,0.246809 0.29682,0.411795 0.503251,0.656247 0.412914,0.488955 0.271084,0.296047 0.735525,0.733454 0.360006,0.339047 0.226447,0.257857 0.580679,0.540443 0.466479,0.372134 0.162121,0.115189 0.73552,0.463235 0.158951,0.09648 0.309695,0.205883 0.464545,0.308824 0.610539,0.405882 0.314031,0.199673 0.890371,0.617649 0.141941,0.102939 0.275362,0.218794 0.425825,0.308819 0.233334,0.139605 0.792105,0.380688 1.045218,0.50184 0.08156,0.03904 0.967279,0.484172 1.006509,0.501836 0.21622,0.09738 0.44075,0.175397 0.6581,0.270224 0.19568,0.08537 0.38577,0.183097 0.58067,0.270221 0.34995,0.15643 0.89278,0.380061 1.23878,0.501836 0.12712,0.04474 0.99479,0.311091 1.16136,0.347427 0.23004,0.05018 0.46472,0.07613 0.69681,0.115808 0.21955,0.03753 0.43786,0.08253 0.6581,0.115811 0.32802,0.04956 1.09638,0.131008 1.39362,0.15441 0.23191,0.01826 0.46503,0.01879 0.69681,0.0386 1.06745,0.09124 0.25885,0.08502 1.43234,0.115809 0.23219,0.0061 0.46454,0 0.69681,0 0.23227,0 0.46462,0.0061 0.69681,0 0.28897,-0.0076 1.1156,-0.05916 1.43234,-0.07721 0.67456,-0.03844 1.34468,-0.08888 2.01301,-0.193011 0.65117,-0.10146 0.6983,-0.126992 1.35491,-0.270221 0.18049,-0.03937 0.36385,-0.06681 0.54197,-0.115808 0.19667,-0.0541 0.38773,-0.126876 0.58068,-0.193017 1.44936,-0.496821 -0.11264,0.03184 1.27748,-0.463235 0.15372,-0.05474 0.3103,-0.101171 0.46455,-0.154413 0.71486,-0.246756 0.38046,-0.148143 1.12263,-0.38603 0.48716,-0.156144 0.47273,-0.109442 0.89038,-0.347427 0.37373,-0.21296 0.55935,-0.376576 0.92908,-0.617643 0.40475,-0.263898 0.52787,-0.297892 0.89037,-0.579046 0.30226,-0.234432 0.33749,-0.31355 0.61939,-0.579041 0.9409,-0.886121 -0.17514,0.213254 0.77423,-0.733457 0.12904,-0.128674 0.26502,-0.250745 0.38712,-0.386027 0.13636,-0.15109 0.47385,-0.59178 0.58068,-0.772059 0.0881,-0.148603 0.1524,-0.310076 0.23227,-0.463238 0.1758,-0.337132 0.35691,-0.671526 0.54196,-1.003673 0.41302,-0.741341 0.22906,-0.353653 0.6194,-1.158092 0.093,-0.191725 0.19386,-0.380381 0.27098,-0.57904 0.0781,-0.201134 0.13082,-0.411216 0.19355,-0.617649 0.0663,-0.218215 0.13969,-0.434639 0.19357,-0.656251 0.0495,-0.20356 0.0774,-0.411763 0.11613,-0.617644 0.0387,-0.205883 0.0837,-0.410683 0.11613,-0.617648 0.0888,-0.566854 0.0722,-0.610881 0.11614,-1.158087 0.0225,-0.280519 0.0449,-0.496665 0.0774,-0.772059 3e-5,-2.46e-4 0.0774,-0.617398 0.0774,-0.617649 0.006,-0.08987 0,-0.180147 0,-0.270221 0,-0.0772 0.006,-0.154679 0,-0.231614 -0.007,-0.08477 -0.0589,-0.332229 -0.0774,-0.424633 0,-2e-6 -0.0774,-0.386021 -0.0774,-0.386027 -0.028,-0.06969 -0.0774,-0.128677 -0.11614,-0.193018 -0.0387,-0.06434 -0.0719,-0.132348 -0.11613,-0.193011 -0.18215,-0.249754 -0.40125,-0.477332 -0.61939,-0.694854 -0.15485,-0.154411 -0.30252,-0.316368 -0.46454,-0.463238 -0.0611,-0.05544 -0.13213,-0.09928 -0.19356,-0.154411 -0.25476,-0.228634 -0.14043,-0.192106 -0.46455,-0.386027 -0.31699,-0.189661 -0.67713,-0.299014 -1.0065,-0.463235 -0.093,-0.04639 -0.17794,-0.108024 -0.27098,-0.154414 -0.17772,-0.08861 -0.39731,-0.160509 -0.58067,-0.231616 -0.12953,-0.05023 -0.25596,-0.108635 -0.38712,-0.154413 -0.12717,-0.04438 -0.25931,-0.07332 -0.38712,-0.115809 -0.62083,-0.206359 10e-4,-0.02524 -0.61939,-0.231618 -0.0891,-0.02963 -0.18085,-0.05077 -0.27098,-0.07721 -0.12924,-0.03791 -0.25576,-0.08604 -0.38712,-0.115805 -0.15309,-0.0347 -0.30988,-0.05039 -0.46454,-0.07721 -0.26386,-0.02228 -0.51506,-0.108807 -0.77424,-0.154416 -0.39382,-0.0693 -0.80258,-0.0841 -1.20006,-0.115805 -0.28415,-0.02267 -0.56697,-0.06301 -0.85166,-0.07721 -0.3393,-0.01691 -0.57972,0.01458 -0.92909,0.0386 -0.84384,0.05803 -1.67974,0.141885 -2.51626,0.270222 -0.53482,0.08205 -0.30304,0.06598 -0.81294,0.154408 -0.13927,0.02416 -0.92054,0.140065 -1.04522,0.154411 -0.15436,0.01775 -0.31072,0.01669 -0.46455,0.0386 -0.11776,0.01678 -0.23199,0.05277 -0.3484,0.07721 -0.41114,0.08631 -0.41231,0.08139 -0.85166,0.154408 -0.15485,0.02574 -0.309,0.05606 -0.46454,0.07721 -0.32822,0.04463 -0.38873,0.02601 -0.69681,0.07721 -0.1298,0.02156 -0.25765,0.05373 -0.38712,0.07721 -0.18711,0.03392 -0.79035,0.130281 -0.9678,0.154411 -0.12271,0.01669 -0.52545,0.05386 -0.6581,0.0772 -0.11715,0.02061 -0.23175,0.05394 -0.34841,0.07721 -0.14147,0.02822 -0.2841,0.05029 -0.42582,0.07721 -0.12927,0.02455 -0.25714,0.05674 -0.38712,0.0772 -0.17614,0.02773 -0.43806,0.03846 -0.61939,0.07721 -1.2e-4,2.6e-5 -0.54185,0.154384 -0.54196,0.154413 -0.38942,0.09708 -0.77954,0.181904 -1.16136,0.308819 -0.10458,0.03476 -0.20587,0.07883 -0.30969,0.115814 -0.0769,0.02737 -0.15609,0.04799 -0.23227,0.0772 -2.3e-4,9e-5 -0.54174,0.231532 -0.54197,0.231622 -0.31857,0.127069 -0.6524,0.212638 -0.96779,0.347424 -0.0795,0.034 -0.15238,0.08261 -0.23227,0.115808 -0.0753,0.03131 -0.15485,0.05147 -0.23227,0.07721 -0.25566,0.08498 -0.5138,0.162364 -0.77424,0.231619 -0.20563,0.05468 -0.41747,0.08729 -0.61939,0.154411 -0.0932,0.03098 -0.17926,0.08063 -0.27098,0.115805 -0.0762,0.02922 -0.156927,0.04591 -0.23227,0.07721 -0.180581,0.07503 -0.261427,0.135982 -0.425828,0.231613 -2.3e-4,1.35e-4 -0.541729,0.30869 -0.541965,0.308825 -0.180655,0.102941 -0.358777,0.210462 -0.541964,0.308824 -1.62e-4,8.7e-5 -0.464384,0.231526 -0.46454,0.231619 -0.05531,0.03309 -0.100147,0.08172 -0.154847,0.115808 -0.04895,0.03051 -0.104741,0.04865 -0.154853,0.0772 -0.04039,0.02302 -0.07574,0.05419 -0.116134,0.07721 -0.168499,0.09601 -0.360182,0.1657 -0.541964,0.231619 -0.0767,0.02781 -0.156924,0.0459 -0.232267,0.0772 -0.588555,0.244539 0.12401,-0.01294 -0.464545,0.231619 -0.208394,0.08659 -0.214821,0.04703 -0.38712,0.154408 -0.0547,0.03409 -0.10323,0.07721 -0.154845,0.115808 -0.103232,0.07721 -0.211701,0.147863 -0.309694,0.231619 -0.04156,0.03552 -0.07458,0.08029 -0.116134,0.115808 -0.049,0.04188 -0.105849,0.07393 -0.154845,0.115811 -0.124309,0.106249 -0.224099,0.241178 -0.348406,0.347427 -0.1944,0.166158 -0.414541,0.310028 -0.619392,0.463235 -0.05161,0.0386 -0.100147,0.08172 -0.154847,0.115806 -0.181618,0.113194 -0.118769,0.03299 -0.270979,0.154416 -0.126333,0.100782 -0.290568,0.39602 -0.387119,0.540438 -0.0258,0.0386 -0.04837,0.07959 -0.07742,0.115808 -0.02281,0.02843 -0.07742,0.04076 -0.07742,0.07721 0,0.129937 0.128728,0.262665 0.07742,0.382042 -0.07952,0.185031 -0.289603,0.280287 -0.425829,0.42862 -0.03895,0.04241 -0.05162,0.102939 -0.07742,0.154408 -0.01291,0.02574 -0.0227,0.05327 -0.03871,0.07721 -0.01013,0.01516 -0.03054,0.02233 -0.03871,0.03861 -0.01603,0.03199 0,0.117861 0,0.154408"
       id="path1118" />
    <path
       style="fill:none;stroke:var(--main);stroke-width:0.264583px;stroke-linecap:butt;stroke-linejoin:miter;stroke-opacity:1"
       d="m 99.517674,58.279404 c 0.07742,0.161192 0.13105,0.336158 0.232267,0.483581 0.05698,0.08299 0.157689,0.125405 0.232272,0.193017 0.06751,0.06119 0.122337,0.136189 0.193557,0.19301 4e-5,3.2e-5 0.38708,0.231593 0.38712,0.231619 0.13824,0.08773 0.35345,0.247317 0.50325,0.308825 0.1246,0.05116 0.25759,0.0789 0.38712,0.115808 0.46206,0.131643 0.34059,0.07409 0.73552,0.231619 0.55808,0.222604 -0.0295,-2.04e-4 0.58068,0.270221 0.12701,0.05629 0.25937,0.09982 0.38712,0.154411 0.1433,0.06124 0.28252,0.131768 0.42583,0.193011 0.12774,0.0546 0.2601,0.09812 0.38712,0.154416 0.32758,0.145185 0.27719,0.147423 0.58067,0.308824 0.26081,0.138703 0.41118,0.205248 0.69681,0.308825 0.31362,0.11372 0.56898,0.190092 0.89038,0.270216 0.11542,0.02877 0.234,0.04461 0.3484,0.07721 0.15693,0.04471 0.30695,0.112103 0.46454,0.154413 0.44039,0.118232 0.57648,0.111331 1.00651,0.193014 0.73523,0.139652 -0.0547,0.0054 0.73552,0.193016 0.44495,0.10564 0.90198,0.109244 1.35491,0.154408 0.23254,0.02318 0.46336,0.06663 0.69681,0.07721 0.16758,0.0076 0.33551,0 0.50326,0 0.16775,0 0.33565,0.007 0.50325,0 0.37513,-0.01558 0.74917,-0.08034 1.12264,-0.115814 0.42559,-0.04042 0.85276,-0.06598 1.27749,-0.115805 0.18124,-0.02127 0.36089,-0.05463 0.54197,-0.07721 0.24463,-0.03049 0.49146,-0.04244 0.73552,-0.0772 0.14282,-0.02035 0.28333,-0.05477 0.42583,-0.07721 0.10276,-0.01619 0.20767,-0.01826 0.30969,-0.0386 0.2622,-0.05229 0.51586,-0.162906 0.77424,-0.231616 0.39803,-0.105844 0.80885,-0.178784 1.20006,-0.308824 5e-5,-1.4e-5 0.38709,-0.154395 0.38712,-0.154414 0.0832,-0.04148 0.15485,-0.102939 0.23228,-0.154411 0.0387,-0.02574 0.0804,-0.04749 0.11613,-0.0772 0.0421,-0.03494 0.0741,-0.08087 0.11613,-0.115813 0.0715,-0.05942 0.1515,-0.108381 0.23228,-0.154408 0.19926,-0.113549 0.41409,-0.206468 0.61938,-0.308824 0.10324,-0.05147 0.20948,-0.0973 0.3097,-0.154411 0.0404,-0.02302 0.0745,-0.05646 0.11613,-0.07721 0.3328,-0.165938 -0.10052,0.08872 0.23228,-0.07721 0.0832,-0.04148 0.15248,-0.106677 0.23226,-0.154411 0.1031,-0.06168 0.21639,-0.115472 0.3097,-0.193016 0.0841,-0.06988 0.14916,-0.160573 0.23227,-0.231616 0.049,-0.04188 0.10585,-0.07393 0.15485,-0.115811 0.1131,-0.09668 0.25141,-0.23459 0.3484,-0.347427 0.042,-0.04884 0.0742,-0.105569 0.11614,-0.154408 0.12931,-0.150434 0.28527,-0.284467 0.42583,-0.424632 0.0516,-0.05147 0.11103,-0.09615 0.15484,-0.154411 0.0346,-0.04602 0.0454,-0.106548 0.0774,-0.154414 0.0101,-0.01516 0.0258,-0.02574 0.0387,-0.0386 0.0129,-0.02574 0.0227,-0.05327 0.0387,-0.07721 0.0101,-0.01513 0.0286,-0.02344 0.0387,-0.0386 1.4e-4,-2.09e-4 0.0773,-0.154209 0.0774,-0.154413 0.0219,-0.02913 0.0555,-0.04808 0.0774,-0.0772 0.068,-0.09042 0.0919,-0.21466 0.15485,-0.308825 0.0285,-0.0426 0.0932,-0.07017 0.11613,-0.115805 0.016,-0.03199 0,-0.117872 0,-0.154416"
       id="path1128" />
    <path
       style="fill:none;stroke:var(--main);stroke-width:0.264583px;stroke-linecap:butt;stroke-linejoin:miter;stroke-opacity:1"
       d="m 103.96953,60.808942 c 0.11613,-0.38603 0.19832,-0.783947 0.3484,-1.158089 10e-6,-1.3e-5 0.38711,-0.386014 0.38712,-0.386027 0.34261,-0.417563 -0.0604,-0.05414 0.38712,-0.463241 0.36524,-0.333861 0.80849,-0.57228 1.23878,-0.810659 0.0504,-0.02795 0.10473,-0.04865 0.15484,-0.0772 0.16273,-0.09272 0.29862,-0.218575 0.46454,-0.308825 0.32606,-0.177353 0.67021,-0.308459 1.00651,-0.463232 0.0786,-0.03617 0.15347,-0.08009 0.23227,-0.115808 0.0633,-0.02868 0.13139,-0.04622 0.19356,-0.07721 6e-5,-2.9e-5 0.23221,-0.154382 0.23227,-0.154408 0.13482,-0.05762 0.36058,-0.077 0.50325,-0.115808 0.0787,-0.02141 0.15276,-0.05891 0.23227,-0.07721 0.0889,-0.02045 0.18176,-0.01953 0.27099,-0.0386 0.0918,-0.01963 0.17945,-0.05614 0.27097,-0.07721 0.0765,-0.01759 0.15654,-0.01799 0.23228,-0.0386 0.067,-0.01823 0.12701,-0.0573 0.19356,-0.07721 0.11396,-0.03409 0.23298,-0.04843 0.3484,-0.0772 0.24959,-0.06222 0.51838,-0.133152 0.77424,-0.154414 0.23042,-0.01915 0.46678,0.02294 0.69681,0 0.34853,-0.03475 0.0466,-0.03421 0.3484,-0.0772 0.0894,-0.01273 0.18066,0 0.27099,0 0.19356,0 0.38712,0 0.58068,0 0.30969,0 0.61938,0 0.92908,0 0.11118,0 0.23846,-0.01566 0.3484,0 0.16808,0.02395 0.33554,0.0854 0.50325,0.115808 0.36022,0.06531 0.72825,0.104344 1.08394,0.193016 0.15771,0.03932 0.30817,0.109861 0.46454,0.154411 2e-5,8e-6 0.30966,0.07719 0.30969,0.07721 0.0659,0.02191 0.12826,0.05353 0.19356,0.07721 0.27305,0.09901 0.54296,0.201133 0.81295,0.308824 0.13824,0.05514 0.22181,0.08227 0.34841,0.154411 5e-5,3.4e-5 0.23221,0.154379 0.23227,0.154408 0.0365,0.0182 0.0782,0.02349 0.11613,0.0386 0.0865,0.03449 0.23318,0.103552 0.30969,0.154416 0.0564,0.03752 0.10672,0.106418 0.15485,0.154408 0.12904,0.128677 0.25808,0.257355 0.38712,0.38603 0.0349,0.03481 0.15668,0.180758 0.19356,0.193016 0.0245,0.0081 0.0524,-0.0062 0.0774,0 0.056,0.01394 0.10681,0.04527 0.15485,0.0772 0.0152,0.01008 0.0235,0.02851 0.0387,0.0386 0.048,0.03193 0.10682,0.04527 0.15485,0.0772 0.0152,0.01008 0.0224,0.03047 0.0387,0.03861 0.0231,0.01154 0.0543,-0.01151 0.0774,0 0.0163,0.0081 0.0224,0.03047 0.0387,0.0386 0.0116,0.0058 0.0258,0 0.0387,0 0.0129,0.01286 0.0224,0.03047 0.0387,0.0386 0.0115,0.0058 0.0272,-0.0058 0.0387,0 0.0163,0.0081 0.0224,0.03047 0.0387,0.0386 0.031,0.01545 0.0851,-0.01545 0.11614,0 0.0163,0.0081 0.0224,0.03047 0.0387,0.0386 0.0115,0.0058 0.0272,-0.0058 0.0387,0 0.0163,0.0081 0.0224,0.03047 0.0387,0.0386 0.0116,0.0058 0.0272,-0.0058 0.0387,0 0.0163,0.0081 0.0224,0.03047 0.0387,0.0386 0.012,0.006 0.10418,0.006 0.11614,0 0.0163,-0.0081 0.0258,-0.02574 0.0387,-0.0386"
       id="path1130" />
    <path
       style="fill:none;stroke:var(--main);stroke-width:0.264583px;stroke-linecap:butt;stroke-linejoin:miter;stroke-opacity:1"
       d="m 99.398423,72.312613 c -0.115099,0.15441 -0.255616,0.292798 -0.345294,0.463235 -0.02996,0.05694 0,0.128677 0,0.193016 0,0.20588 0,0.411763 0,0.617643 0,0.205883 0,0.411766 0,0.617649 0,0.102941 -0.0069,0.206113 0,0.308824 0.0061,0.09079 0.03113,0.179544 0.03871,0.270222 0.0054,0.06411 -0.0064,0.128995 0,0.193011 0.01336,0.133122 0.0386,0.192688 0.07743,0.308824 0.01291,0.0386 0.032,0.07566 0.03871,0.115808 0.01273,0.07615 0,0.154414 0,0.231619 0,0.115808 0,0.231619 0,0.347427 0,0.03468 -0.01222,0.168645 0,0.193011 0.0082,0.0163 0.0258,0.02574 0.03871,0.0386"
       id="path1132" />
    <path
       style="fill:none;stroke:var(--main);stroke-width:0.264583px;stroke-linecap:butt;stroke-linejoin:miter;stroke-opacity:1"
       d="m 102.73075,76.306765 c 0.0842,0.344586 0.0774,0.679085 0.0774,1.024231 0,0.071 0.0139,0.162169 0,0.231614 -0.0238,0.118795 -0.0923,0.228632 -0.11614,0.347427 -0.0126,0.06308 0,0.128677 0,0.193016 0,0.09007 0,0.180144 0,0.270216 0,0.02574 -0.0257,0.07721 0,0.07721 0.0129,0 0,-0.02574 0,-0.03861"
       id="path1134" />
    <path
       style="fill:none;stroke:var(--main);stroke-width:0.264583px;stroke-linecap:butt;stroke-linejoin:miter;stroke-opacity:1"
       d="m 106.1761,73.046069 c 0.19738,-0.09845 0.51284,-0.425997 0.77423,-0.463235 0.1022,-0.01455 0.20646,0 0.30969,0 0.15485,0 0.31023,-0.01283 0.46455,0 0.23851,0.01982 0.56465,0.150792 0.77423,0.270217 0.0808,0.04603 0.16077,0.095 0.23227,0.154416 0.0841,0.06988 0.14818,0.161731 0.23228,0.231613 0.0358,0.02971 0.0798,0.04822 0.11613,0.07721 0.0779,0.06218 0.24488,0.320529 0.27098,0.42463 0.0149,0.05968 -0.061,0.292968 -0.0774,0.347427 -0.0779,0.258916 -0.19786,0.508275 -0.34841,0.733456 -0.0458,0.06857 -0.10323,0.128675 -0.15484,0.193011 -0.0516,0.06434 -0.0964,0.134776 -0.15485,0.193019 -0.0456,0.04551 -0.10585,0.07393 -0.15485,0.115806 -5e-5,3.9e-5 -0.23223,0.231579 -0.23227,0.231619 -0.0754,0.07516 -0.16571,0.14865 -0.23227,0.231616 -0.0857,0.106823 -0.15613,0.233526 -0.23227,0.347427 -0.0516,0.07721 -0.11322,0.148598 -0.15485,0.231619 -0.0342,0.06816 -0.10101,0.272018 -0.11613,0.347427 -0.004,0.02172 -0.009,0.205621 0,0.231613 0.009,0.0273 0.0214,0.0542 0.0387,0.07721 0,8e-6 0.15483,0.154406 0.15484,0.154408 0.10128,0.0505 0.41979,0.08873 0.54197,0.115808 0.181,0.04011 0.358,0.131482 0.54196,0.154414 0.0512,0.0064 0.10323,0 0.15485,0 0.16775,0 0.3355,0 0.50325,0 0.40002,0 0.80005,0 1.20007,0 0.0689,0 0.45453,0.01619 0.50325,0 0.15078,-0.05012 0.004,-0.0386 0.15484,-0.0386"
       id="path1136" />
    <path
       style="fill:none;stroke:var(--main);stroke-width:0.264583px;stroke-linecap:butt;stroke-linejoin:miter;stroke-opacity:1"
       d="m 114.0733,77.58629 c 0.12904,-0.03363 0.25495,-0.08316 0.38712,-0.100885 0.0535,-0.0072 0.12186,0.08292 0.15484,0.115808 0.0888,0.08852 -0.0163,-0.02445 0.0774,0.11581 2e-5,1.6e-5 0.0774,0.07719 0.0774,0.07721 0.032,0.04787 0.0592,0.0998 0.0774,0.154411 0.0166,0.04979 0,0.384243 0,0.463232 0,0.118833 0.001,0.03607 -0.0387,0.115814 -0.0117,0.02326 0.0179,0.09801 0,0.115805 -0.009,0.0091 -0.0258,0 -0.0387,0"
       id="path1138" />
    <path
       style="fill:none;stroke:var(--main);stroke-width:0.264583px;stroke-linecap:butt;stroke-linejoin:miter;stroke-opacity:1"
       d="m 118.11505,71.053106 c 0.0335,0.08527 0.0651,0.171299 0.10041,0.255828 0.0222,0.05313 0.0592,0.09981 0.0774,0.154416 0.1,0.299011 0.13732,0.618033 0.19356,0.926468 1e-5,6.9e-5 0.0774,0.385956 0.0774,0.38603 0.0393,0.196067 0.0914,0.389223 0.15485,0.579046 0.0349,0.104415 0.0983,0.240879 0.11613,0.347424 0.024,0.143354 -0.0186,0.353367 0,0.501838 0.007,0.05265 0.0312,0.101883 0.0387,0.154408 0.0109,0.07643 -0.0127,0.155469 0,0.231622 0.007,0.04015 0.032,0.07566 0.0387,0.115805 0.0127,0.07615 0,0.154414 0,0.231619 0,0.180147 0,0.360294 0,0.540441 0,0.553309 0,1.106617 0,1.659927"
       id="path1140" />
  </g>
</svg>
