<svg xmlns="http://www.w3.org/2000/svg" width="14.08" height="12.36" aria-hidden="true" viewBox="0 -683 778 683"><defs><path id="K_svg__a" d="M128 622q-7 7-11 9t-16 3-43 3H25v46h11q21-3 144-3 135 0 144 3h11v-46h-22q-78 0-80-17-1-2-1-158l1-155 146 142q46 45 100 97 39 38 45 45t7 16v1q0 22-28 28h-5q-3 0-5 1h-4v46h10q18-3 131-3 74 0 86 3h6v-46h-14q-75-4-119-40-5-5-94-91t-89-87 109-165T631 80q13-20 31-26t53-8h21V0h-8q-9 3-113 3-122 0-143-3h-11v46h8q46 0 46 26 0 6-3 12L336 351q-4-3-58-55l-46-45v-95q0-94 3-98 8-11 67-12h33V0h-11q-21 3-144 3Q45 3 36 0H25v46h33q42 1 51 3t19 12z"/></defs><g stroke="#000" stroke-width="0" data-mml-node="math"><g data-mjx-texclass="ORD" data-mml-node="TeXAtom"><use data-c="4B" data-mml-node="mi" transform="scale(1 -1)" href="#K_svg__a"/></g></g></svg>