<svg xmlns="http://www.w3.org/2000/svg" xmlns:xlink="http://www.w3.org/1999/xlink" width="13.064" height="12.36" aria-hidden="true" viewBox="0 -683 722 683"><defs><path id="a" d="M17 665q0 7 11 18h193q194-2 218-6 22-4 42-10t35-13 28-15 22-16 18-16 13-15 10-14 7-13 4-11l3-6q5-18 5-51 0-50-13-78-35-71-140-93l-18-5q7-11 18-29t44-66 61-85 59-69 49-37q19-5 19-19 0-9-12-17H510q-7 7-106 160l-98 151h-38V183q2-116 3-124 3-17 20-21 4-1 28-3 25 0 34-7 9-11 0-25l-7-4H28Q16 5 16 16q0 19 39 19 41 3 46 17 5 8 5 289t-5 291q-6 13-46 16-38 0-38 17M241 35q-3 7-4 10t-2 33-2 85 0 174v284l4 14 7 13H133q3-7 4-10t2-35 2-86 0-176q0-210-1-252t-6-52q-1-1-1-2zm216 461q0 44-8 74t-24 45-25 19-23 9q-3 0-38 5-39 0-58-13-10-7-11-25t-2-129V346h16q43 0 91 6 46 12 64 40t18 104m35 41v-41l-4-69-10-38-9-18-5-10q0-1 1-1 4 0 32 10 96 30 96 125 0 97-116 135l-20 7 4-11q13-15 27-65 4-24 4-65Zm-28-294q-53 74-54 74-6 0-9-2-17 0-31-3h-24L526 35h93l-13 15q-53 59-142 193"/></defs><g stroke="#000" stroke-width="0" data-mml-node="math"><g data-mjx-texclass="ORD" data-mml-node="TeXAtom"><use xlink:href="#a" data-c="211D" data-mml-node="mi" transform="scale(1 -1)"/></g></g></svg>